<svg t="1698975850606" class="icon" viewBox="0 0 1024 1024" version="1.1" xmlns="http://www.w3.org/2000/svg" p-id="2095" width="48" height="48"><path d="M967.111111 933.034667V967.111111H28.444444v-34.076444h33.052445v-306.915556H42.097778a13.454222 13.454222 0 0 1-13.653334-13.255111v-97.934222c0-7.310222 6.115556-13.255111 13.653334-13.255111h253.895111v-70.855111l0.369778-0.199112-0.369778-20.849777 201.784889-93.041778 201.813333 94.065778v90.88h253.838222c7.537778 0 13.681778 5.944889 13.681778 13.255111v97.934222a13.482667 13.482667 0 0 1-13.681778 13.255111h-19.370666v306.915556H967.111111z m-671.118222-306.915556H109.653333v306.915556h186.339556v-306.915556z m126.236444 306.915556h151.125334V745.244444h-151.125334v187.790223zM497.777778 391.111111c-57.230222 0-103.793778 45.141333-103.793778 100.636445 0 55.523556 46.563556 100.693333 103.793778 100.693333s103.793778-45.169778 103.793778-100.693333c0-55.495111-46.563556-100.636444-103.793778-100.636445z m388.124444 235.008h-186.311111v306.915556h186.311111v-306.915556z m-51.342222 132.977778h-56.263111V690.631111h56.263111v68.465778z m0 122.567111h-56.263111v-68.494222h56.263111v68.494222zM223.061333 759.096889H166.798222V690.631111h56.263111v68.465778z m0 122.567111H166.798222v-68.494222h56.263111v68.494222zM767.431111 410.794667a13.966222 13.966222 0 0 1-6.257778-1.479111L497.777778 277.134222 234.410667 409.315556a14.222222 14.222222 0 0 1-6.257778 1.479111c-5.148444 0-9.784889-21.504-12.145778-25.912889a12.856889 12.856889 0 0 1-0.910222-10.126222 13.368889 13.368889 0 0 1 6.741333-7.736889l261.973334-132.152889 0.028444-191.829334c0-3.697778 1.592889-7.139556 4.494222-9.756444a14.819556 14.819556 0 0 1 10.695111-4.864c1.735111 0 3.441778 0.341333 5.091556 0.967111l157.610667 62.321778c0.682667 0.312889 1.137778 0.597333 1.564444 0.853333l1.507556 0.768a15.644444 15.644444 0 0 1 3.271111 3.356445c0.597333 1.080889 0.967111 1.678222 1.251555 2.304l0.768 2.588444 0.199111 1.991111-0.085333 1.848889c-0.227556 1.706667-0.426667 2.161778-0.597333 2.645333l-0.568889 1.735112a16.810667 16.810667 0 0 1-4.750222 5.262222 12.430222 12.430222 0 0 1-2.446223 1.251555L511.146667 175.388444v59.761778l262.570666 131.868445a13.084444 13.084444 0 0 1 5.859556 17.863111c-2.360889 4.408889-7.025778 25.912889-12.145778 25.912889z" p-id="2096" fill="#1296db"></path></svg>